<?xml version="1.0" encoding="UTF-8"?>
<!DOCTYPE svg PUBLIC "-//W3C//DTD SVG 1.1//EN"
  "http://www.w3.org/Graphics/SVG/1.1/DTD/svg11.dtd">
<!-- Created with Inkpad (http://www.taptrix.com/) --><svg xmlns:inkpad="http://taptrix.com/inkpad/svg_extensions" height="30pt" xmlns:xlink="http://www.w3.org/1999/xlink" xmlns="http://www.w3.org/2000/svg" width="30pt" version="1.1" viewBox="0,0,30,30">
<defs/>
<g id="Untitled" inkpad:layerName="Untitled">
<path d="M14.6809-0.579047L14.6809-0.579047C23.1071-0.579047+29.9379+6.20577+29.9379+14.5753L29.9379+14.5753C29.9379+22.9448+23.1071+29.7296+14.6809+29.7296L14.6809+29.7296C6.25463+29.7296-0.576192+22.9448-0.576193+14.5753L-0.576193+14.5753C-0.576195+6.20577+6.25463-0.579047+14.6809-0.579047Z" opacity="1" fill="#ffffff"/>
<path d="M16.5881+8.8924C16.2366+8.8924+15.9524+9.17465+15.9524+9.52383C15.9524+9.87301+16.2366+10.1553+16.5881+10.1553L18.2321+10.1553L15.503+12.866C15.2544+13.1129+15.2544+13.5119+15.503+13.7588C15.6269+13.882+15.7897+13.9438+15.9524+13.9438C16.1152+13.9438+16.2779+13.882+16.4019+13.7588L19.131+11.0481L19.131+12.681C19.131+13.0302+19.4151+13.3124+19.7667+13.3124C20.1182+13.3124+20.4024+13.0302+20.4024+12.681L20.4024+8.8924L16.5881+8.8924Z" opacity="1" fill="#222222"/>
<path d="M12.96+15.3918L10.2309+18.1026L10.2309+16.4697C10.2309+16.1205+9.94673+15.8383+9.59518+15.8383C9.24364+15.8383+8.95947+16.1205+8.95947+16.4697L8.95947+20.2583L12.7737+20.2583C13.1253+20.2583+13.4094+19.976+13.4094+19.6268C13.4094+19.2776+13.1253+18.9954+12.7737+18.9954L11.1298+18.9954L13.8589+16.2847C14.1075+16.0378+14.1075+15.6387+13.8589+15.3918C13.6103+15.1449+13.2086+15.1449+12.96+15.3918Z" opacity="1" fill="#222222"/>
</g>
</svg>
